<mxfile host="app.diagrams.net" modified="2023-03-28T23:33:30.402Z" agent="Mozilla/5.0 (Windows NT 10.0; Win64; x64; rv:109.0) Gecko/20100101 Firefox/112.0" version="21.1.0" etag="o1tByBIr8ROQaPCOdg53" type="github">
  <diagram name="Page-1" id="hKZz3LRuzJFe9sqO4pNc">
    <mxGraphModel>
      <root>
        <mxCell id="0" />
        <mxCell id="1" parent="0" />
      </root>
    </mxGraphModel>
  </diagram>
</mxfile>
